<?xml version="1.0" standalone="no"?>
<!DOCTYPE svg PUBLIC "-//W3C//DTD SVG 20010904//EN"
 "http://www.w3.org/TR/2001/REC-SVG-20010904/DTD/svg10.dtd">
<svg version="1.0" xmlns="http://www.w3.org/2000/svg"
 width="600.000000pt" height="600.000000pt" viewBox="0 0 600.000000 600.000000"
 preserveAspectRatio="xMidYMid meet">
<g transform="translate(0.000000,600.000000) scale(0.100000,-0.100000)"
fill="#000000" stroke="none">
<path d="M2885 5387 c-59 -149 -117 -289 -127 -310 -11 -22 -18 -40 -16 -42 2
-2 37 27 78 65 41 38 78 69 82 70 4 0 -15 -35 -43 -77 -28 -43 -139 -222 -248
-398 -108 -176 -300 -486 -426 -690 -126 -203 -263 -426 -305 -495 -42 -69
-140 -226 -216 -350 -77 -124 -208 -335 -291 -470 l-151 -245 -7 -115 c-3 -63
-9 -128 -12 -145 -3 -19 27 24 82 115 80 133 536 897 729 1220 44 74 173 290
286 480 114 190 320 536 460 770 139 234 254 426 255 428 1 2 46 -25 100 -58
54 -33 100 -59 102 -56 2 2 -2 17 -10 33 -8 15 -58 143 -112 283 -53 140 -98
256 -99 257 -1 2 -51 -120 -111 -270z m155 73 c0 -9 5 -21 10 -26 6 -6 12 -20
15 -32 4 -22 70 -195 85 -224 6 -11 5 -18 -6 -22 -8 -3 -13 -2 -10 2 3 5 -22
23 -55 41 l-61 33 -29 -28 c-16 -15 -29 -33 -29 -39 0 -7 -13 -30 -29 -52 -16
-23 -27 -44 -24 -47 4 -3 1 -6 -6 -6 -7 0 -9 -5 -6 -10 3 -6 0 -13 -8 -16 -8
-3 -23 -25 -33 -49 -10 -24 -22 -41 -26 -38 -5 3 -8 -3 -6 -13 2 -11 -2 -18
-9 -16 -12 2 -17 -11 -14 -31 1 -5 -3 -6 -9 -2 -5 3 -10 -1 -10 -10 0 -17 -20
-56 -35 -67 -7 -5 -7 -8 0 -8 7 0 7 -3 0 -8 -18 -13 -50 -56 -36 -47 14 8 -25
-54 -40 -65 -4 -3 -9 -12 -11 -20 -2 -8 -7 -19 -11 -25 -27 -35 -74 -115 -65
-109 7 4 2 -7 -11 -24 -12 -18 -25 -32 -28 -32 -3 0 1 8 8 18 13 15 12 16 -3
4 -9 -8 -15 -19 -12 -26 3 -7 -7 -29 -21 -50 -14 -20 -32 -53 -40 -72 -9 -23
-19 -33 -26 -28 -7 4 -9 3 -6 -3 3 -5 -5 -26 -18 -45 -13 -20 -22 -38 -19 -40
2 -3 -2 -11 -11 -18 -8 -7 -15 -16 -15 -21 0 -5 -10 -21 -22 -35 -13 -14 -23
-31 -23 -37 0 -7 -14 -32 -31 -57 -17 -25 -34 -55 -38 -67 -4 -13 -12 -23 -17
-23 -5 0 -9 -7 -9 -15 0 -8 -4 -15 -10 -15 -5 0 -7 -7 -4 -15 4 -8 -1 -17 -9
-21 -8 -3 -21 -20 -28 -37 -7 -18 -23 -45 -35 -62 -19 -25 -70 -108 -109 -175
-6 -10 -17 -26 -25 -36 -13 -15 -13 -16 -1 -9 8 5 3 -7 -12 -27 -15 -19 -27
-40 -27 -46 0 -7 -4 -12 -10 -12 -5 0 -10 -6 -10 -13 0 -7 -7 -22 -15 -32 -30
-39 -81 -121 -94 -152 -7 -18 -19 -37 -26 -43 -7 -6 -26 -37 -41 -68 -16 -31
-31 -59 -34 -62 -3 -3 -14 -22 -25 -42 -11 -21 -23 -38 -28 -38 -4 0 -6 -4 -3
-9 4 -5 3 -11 -1 -13 -5 -1 -21 -23 -36 -47 -16 -24 -24 -40 -17 -36 6 4 -10
-21 -35 -54 -26 -34 -48 -68 -49 -75 -1 -8 -15 -35 -31 -61 -17 -26 -28 -47
-25 -49 3 -1 -1 -8 -8 -16 -23 -28 -82 -119 -84 -132 -2 -7 -5 -15 -8 -18 -23
-23 -42 -52 -30 -45 12 7 12 5 -1 -11 -9 -10 -18 -24 -20 -29 -11 -29 -94
-144 -100 -137 -4 4 -2 36 3 72 5 36 9 70 10 77 1 7 5 10 10 7 4 -3 8 2 8 10
0 9 5 16 10 16 6 0 10 7 10 15 0 9 8 25 18 36 11 10 25 32 32 47 8 15 30 49
50 77 19 27 34 51 33 52 -5 5 32 63 40 63 5 0 5 5 2 10 -3 6 -1 10 6 10 7 0
10 3 6 6 -3 3 4 17 16 31 12 13 21 27 19 29 -1 2 14 27 33 54 19 27 35 52 35
55 0 9 94 160 104 167 7 5 7 8 1 8 -5 0 -1 7 9 15 11 8 17 15 13 15 -5 0 -3 6
3 13 23 27 89 137 82 137 -4 0 -2 4 4 8 16 10 124 184 124 198 0 7 3 14 8 16
10 4 62 85 62 96 0 8 11 24 50 70 6 6 7 12 3 12 -4 0 1 7 11 15 11 8 17 15 13
15 -4 0 18 38 48 84 30 47 62 100 72 118 18 32 96 155 134 210 11 15 19 31 19
36 0 5 7 15 15 22 9 7 13 15 11 17 -3 3 0 10 5 17 5 6 25 36 44 66 19 30 39
60 44 66 5 7 7 15 4 18 -4 3 -2 6 4 6 8 0 35 43 37 60 1 3 13 21 27 40 15 19
32 46 39 60 7 14 19 29 27 33 7 5 10 13 7 19 -4 6 -2 13 3 17 12 8 67 94 64
100 -2 2 4 8 13 13 9 5 14 13 11 19 -4 5 -2 9 3 9 5 0 19 20 32 45 13 25 27
45 32 45 5 0 8 6 6 14 -2 8 1 14 5 13 13 -3 36 45 29 62 -3 8 -1 12 5 8 9 -6
24 15 24 33 0 3 6 12 14 20 7 8 27 40 45 69 29 50 30 56 15 67 -17 13 -58 7
-49 -7 3 -5 -3 -6 -12 -2 -10 4 -15 2 -11 -4 3 -5 0 -10 -8 -10 -17 0 -19 9
-6 23 5 5 14 27 21 49 7 22 16 45 20 50 4 6 15 34 24 62 10 29 21 55 26 58 5
3 6 13 3 22 -4 10 -2 14 4 10 6 -4 13 5 16 21 3 15 16 50 28 77 l22 50 24 -50
c12 -27 23 -57 23 -65z"/>
<path d="M3080 5054 c0 -3 8 -18 18 -32 11 -15 77 -126 149 -247 72 -121 294
-494 493 -830 200 -335 392 -659 428 -720 36 -60 153 -258 262 -440 341 -572
460 -773 460 -777 0 -3 -54 -26 -119 -53 l-119 -48 331 -83 c183 -46 333 -84
334 -84 1 0 -38 60 -86 133 -47 72 -118 181 -156 240 l-70 108 -18 -43 c-11
-24 -23 -54 -28 -67 -5 -13 -11 -22 -13 -20 -3 2 -126 211 -274 464 -513 878
-995 1701 -1092 1865 -53 91 -146 248 -205 350 -60 102 -111 186 -114 188 -3
1 -44 25 -90 52 -88 52 -91 54 -91 44z m166 -122 c11 -7 13 -10 7 -7 -7 3 -3
-9 10 -28 12 -19 26 -32 31 -29 5 3 6 0 3 -5 -4 -6 4 -27 18 -47 14 -20 25
-41 25 -45 0 -5 7 -14 15 -21 8 -6 13 -15 12 -18 -3 -11 36 -72 46 -72 4 0 6
-4 2 -9 -3 -5 -1 -12 4 -16 5 -3 16 -18 24 -33 7 -15 24 -45 37 -67 12 -22 34
-60 48 -85 14 -25 30 -51 36 -59 6 -7 11 -19 12 -25 4 -41 4 -41 13 -28 6 10
12 4 22 -20 8 -18 14 -37 14 -41 0 -4 5 -11 11 -15 13 -8 51 -68 60 -94 4 -10
11 -18 16 -18 5 0 6 -5 3 -10 -4 -6 9 -32 27 -58 19 -26 40 -58 47 -72 26 -53
58 -109 70 -124 7 -8 9 -21 5 -27 -5 -9 -2 -10 12 -5 10 4 15 4 12 0 -6 -5 20
-54 70 -130 7 -10 24 -41 37 -69 27 -54 40 -76 67 -114 10 -13 15 -28 11 -34
-3 -5 -2 -7 4 -4 6 4 18 -10 28 -31 18 -37 27 -56 50 -99 7 -13 16 -19 20 -15
5 4 5 1 1 -6 -5 -8 2 -23 18 -39 14 -14 26 -32 26 -40 0 -9 11 -29 25 -45 14
-16 23 -34 19 -39 -3 -5 0 -9 6 -9 6 0 8 -4 5 -10 -3 -5 -2 -10 3 -10 5 0 15
-12 23 -27 8 -16 17 -30 20 -33 3 -3 23 -36 44 -75 20 -38 43 -77 50 -85 6 -8
22 -36 34 -62 13 -27 27 -48 32 -48 6 0 8 -4 5 -9 -4 -5 -2 -11 2 -13 8 -3 54
-82 95 -163 11 -22 34 -57 49 -77 16 -21 27 -42 24 -47 -3 -5 1 -11 9 -15 8
-3 15 -10 15 -16 0 -7 15 -35 33 -63 19 -29 42 -65 53 -82 10 -16 25 -41 31
-55 7 -14 25 -46 40 -71 16 -25 41 -69 58 -97 16 -28 37 -53 47 -55 21 -6 58
36 58 64 0 11 5 19 10 19 6 0 10 -7 10 -15 0 -7 6 -18 14 -22 8 -4 25 -27 39
-51 13 -23 26 -40 29 -37 2 3 5 -1 5 -8 0 -13 34 -66 60 -94 6 -7 15 -22 18
-33 3 -11 11 -20 16 -20 6 0 7 -4 4 -10 -3 -5 -2 -10 4 -10 6 0 17 -13 26 -30
l15 -30 -37 6 c-21 3 -42 9 -48 12 -5 3 -30 9 -55 14 -54 10 -62 12 -75 20
-10 5 -65 19 -95 23 -8 1 -23 6 -33 10 -10 4 -20 5 -24 2 -3 -4 -18 0 -34 8
-15 8 -39 15 -52 15 -14 0 -27 7 -31 15 -3 8 -2 14 2 13 18 -5 116 39 132 59
17 22 17 25 -14 86 -17 35 -35 62 -40 59 -5 -3 -6 0 -3 5 4 6 1 16 -7 22 -7 6
-21 29 -31 51 -10 22 -21 40 -25 40 -5 0 -11 11 -14 25 -4 14 -11 25 -16 25
-6 0 -10 6 -10 14 0 8 -6 21 -12 28 -7 7 -20 22 -28 32 -13 18 -13 19 0 12 8
-4 6 0 -4 8 -11 9 -17 16 -13 16 4 0 -3 17 -17 37 -14 20 -23 40 -20 45 3 4
-1 8 -9 8 -7 0 -14 6 -14 13 0 6 -28 56 -62 109 -33 53 -61 102 -61 107 0 6
-4 11 -8 11 -4 0 -13 12 -20 28 -22 49 -63 117 -85 140 -12 13 -21 27 -19 30
1 4 -5 15 -13 25 -8 9 -15 19 -15 21 0 2 -18 34 -40 70 -22 36 -40 67 -40 69
0 2 -23 42 -51 88 -28 46 -61 100 -73 119 -11 19 -20 38 -18 43 1 4 -2 7 -8 7
-5 0 -10 6 -10 13 0 6 -13 31 -28 54 -58 89 -97 156 -95 164 2 5 -2 9 -7 9 -6
0 -10 4 -10 9 0 6 -13 29 -29 53 -16 24 -37 59 -48 78 -16 31 -37 66 -80 135
-57 92 -96 162 -96 172 0 7 -3 10 -7 8 -4 -2 -17 16 -29 40 -12 25 -28 51 -34
57 -7 7 -20 29 -30 48 -29 58 -72 129 -92 153 -11 12 -18 22 -16 22 2 0 1 10
-3 23 -4 12 -12 19 -18 16 -6 -4 -8 -2 -4 4 3 6 2 13 -3 16 -14 9 -62 98 -48
89 7 -3 -3 9 -20 27 -18 19 -33 39 -33 46 0 6 -7 17 -15 24 -8 7 -13 16 -10
20 2 4 -5 17 -16 28 -11 12 -18 22 -15 22 3 0 -18 37 -46 83 -28 45 -64 105
-78 134 -15 29 -31 49 -35 45 -5 -4 -5 -2 -1 5 6 12 19 6 92 -45z"/>
<path d="M3486 4707 c3 -10 9 -15 12 -12 3 3 0 11 -7 18 -10 9 -11 8 -5 -6z"/>
<path d="M3285 4591 c-3 -5 -2 -12 3 -15 5 -3 9 1 9 9 0 17 -3 19 -12 6z"/>
<path d="M2690 4581 c0 -6 4 -13 10 -16 6 -3 7 1 4 9 -7 18 -14 21 -14 7z"/>
<path d="M2878 4040 c-404 -57 -735 -379 -808 -786 -18 -99 -8 -316 19 -413
154 -566 788 -864 1318 -620 267 122 460 353 535 641 29 109 31 336 5 442 -92
366 -375 646 -731 722 -90 19 -251 26 -338 14z m194 -25 c38 0 68 -4 68 -9 0
-4 7 -6 15 -2 8 3 28 1 43 -5 15 -6 42 -12 61 -15 19 -2 39 -8 45 -13 6 -5 35
-16 63 -25 29 -10 55 -22 59 -27 3 -5 10 -7 15 -4 5 4 9 1 9 -5 0 -6 5 -8 12
-4 7 4 8 3 4 -4 -4 -7 -1 -12 8 -12 9 0 16 -5 16 -11 0 -5 4 -8 10 -4 12 8
130 -82 130 -100 0 -9 -40 14 -84 49 -107 83 -172 86 -159 6 3 -19 1 -22 -9
-12 -25 25 -108 4 -108 -28 0 -23 19 -38 55 -42 24 -2 30 -9 36 -34 8 -44 17
-54 44 -54 13 0 36 -5 52 -11 l28 -10 -35 -33 c-19 -18 -36 -38 -37 -44 -2 -6
6 -32 17 -58 15 -33 24 -44 36 -40 8 3 12 2 9 -4 -3 -6 -2 -10 4 -10 14 0 1
-33 -26 -64 -13 -15 -23 -30 -23 -36 0 -5 -9 -6 -22 -1 -14 5 -26 24 -37 61
-9 29 -24 58 -33 64 -29 18 -34 3 -26 -84 l3 -35 -105 1 c-58 0 -115 2 -127 2
-23 2 -23 4 -23 132 0 146 -8 134 86 130 109 -4 79 59 -32 68 -44 4 -54 8 -52
21 2 9 13 16 25 17 24 1 85 48 76 58 -4 3 0 6 9 6 8 0 32 15 53 34 l39 33 -17
39 c-10 21 -27 50 -38 64 -12 14 -18 19 -14 11 5 -9 0 -8 -17 3 -14 9 -32 14
-41 11 -8 -4 -18 -2 -21 4 -11 18 -181 11 -263 -10 -42 -10 -79 -16 -84 -13
-5 3 -9 1 -9 -5 0 -5 -18 -12 -40 -16 -38 -6 -78 -21 -124 -46 -12 -7 -22 -7
-28 -1 -7 7 -3 14 11 21 12 7 21 9 21 5 0 -3 6 -1 13 5 8 6 17 8 20 4 4 -3 7
-1 7 5 0 7 12 12 26 12 16 0 23 4 18 12 -4 6 -3 8 3 5 5 -3 27 0 49 8 22 7 60
16 84 20 25 4 47 8 51 11 3 2 32 4 63 5 33 1 56 7 56 13 0 7 3 8 8 1 4 -6 37
-10 74 -10z m93 -60 c21 -6 65 -66 65 -88 0 -7 -16 -20 -36 -27 -20 -8 -45
-27 -56 -42 -31 -44 -51 -51 -92 -31 -23 12 -42 32 -55 59 -24 50 -67 87 -92
79 -10 -3 -36 -1 -58 6 -49 15 -98 5 -81 -16 10 -12 7 -17 -14 -26 -14 -7 -32
-22 -40 -34 -8 -12 -27 -25 -43 -28 -29 -6 -83 -42 -83 -56 0 -5 20 -16 45
-25 40 -16 45 -21 45 -49 l1 -32 19 38 c10 21 20 47 22 59 2 12 15 30 30 41
25 18 28 19 59 3 17 -9 40 -16 49 -16 26 0 128 -69 135 -91 4 -11 13 -19 21
-19 10 0 14 14 14 53 0 36 3 48 10 37 5 -8 7 -30 5 -47 -2 -18 -1 -33 3 -34 4
0 36 -3 72 -6 36 -2 72 -9 80 -13 9 -5 -22 -6 -72 -3 l-87 6 3 -69 c2 -38 4
-111 5 -161 l1 -93 155 0 c85 0 155 3 155 8 0 4 -7 32 -15 62 -18 66 -18 77
-4 63 6 -6 17 -38 23 -69 10 -49 16 -59 36 -65 l25 -7 -24 -1 c-19 -1 -22 -5
-17 -23 3 -13 6 -38 6 -55 0 -24 5 -33 18 -34 14 0 14 -2 2 -7 -12 -6 -15 -31
-15 -139 0 -113 2 -132 15 -129 8 3 46 7 83 11 56 6 66 9 57 20 -8 10 -18 11
-36 4 -14 -5 -41 -9 -60 -9 l-35 0 5 73 c3 39 5 74 6 77 0 3 15 -11 33 -30 18
-19 49 -48 69 -63 33 -25 43 -27 85 -20 92 13 108 11 109 -17 0 -14 6 -38 12
-53 18 -41 15 -113 -8 -202 -11 -42 -17 -81 -15 -85 3 -5 1 -11 -4 -14 -14 -9
-22 -68 -10 -82 6 -7 18 -10 27 -7 25 9 52 40 44 49 -4 5 -3 5 2 1 13 -10 17
-39 5 -31 -5 3 -9 -1 -9 -8 -1 -23 -47 -71 -60 -63 -8 5 -11 4 -7 -2 6 -10
-71 -111 -80 -105 -3 2 -17 -7 -31 -20 -15 -12 -39 -29 -55 -37 -15 -8 -27
-18 -27 -23 0 -4 -6 -8 -13 -8 -7 0 -19 -6 -26 -12 -6 -7 -15 -13 -19 -14 -4
0 -29 -11 -57 -24 -27 -12 -57 -23 -65 -23 -8 0 -20 -3 -25 -8 -6 -4 -24 -10
-40 -13 -17 -3 -54 -10 -84 -16 -72 -13 -253 -13 -327 1 -32 7 -67 12 -77 11
-9 0 -15 3 -12 9 5 8 -23 14 -47 10 -4 0 -31 11 -60 26 -29 15 -59 28 -67 29
-7 2 -25 13 -39 26 -14 13 -22 16 -17 8 8 -15 6 -14 -52 40 -13 11 -26 20 -30
20 -14 1 -92 77 -86 84 4 3 -1 6 -10 6 -8 0 -25 15 -37 34 -11 19 -24 36 -28
38 -12 5 -63 78 -55 78 4 0 3 4 -3 8 -18 11 -88 168 -108 238 -30 109 -37 247
-20 374 7 47 10 88 7 93 -2 4 0 7 5 7 8 0 27 67 23 78 -1 1 13 30 31 65 18 34
32 65 33 69 0 4 6 13 13 20 6 6 12 16 12 21 0 5 12 24 28 42 15 17 33 40 40
51 7 10 5 4 -3 -13 -9 -18 -14 -34 -13 -35 1 -2 -9 -20 -23 -41 -21 -30 -26
-51 -28 -107 -2 -77 12 -145 37 -174 10 -11 11 -16 5 -12 -14 8 -7 -20 11 -43
5 -7 15 -22 21 -33 12 -25 113 -81 132 -74 7 3 13 1 13 -4 0 -5 9 -11 19 -15
17 -5 54 -31 117 -83 16 -13 19 -21 12 -34 -5 -10 -6 -18 -3 -18 3 0 0 -6 -7
-14 -13 -14 -34 -13 -128 6 -30 6 -65 11 -77 10 -19 -1 -21 2 -17 33 4 31 -17
95 -31 95 -4 0 -31 -56 -37 -79 -4 -16 -48 -23 -48 -9 0 5 -4 7 -9 3 -5 -3
-13 0 -16 6 -4 5 -13 8 -21 5 -10 -4 -13 21 -12 130 0 75 -4 140 -8 144 -15
15 -35 -5 -45 -46 -11 -44 -20 -284 -11 -299 3 -5 7 -21 9 -35 4 -40 39 -131
47 -123 4 4 4 0 1 -9 -3 -8 0 -22 8 -29 7 -8 12 -19 10 -25 -2 -6 3 -17 12
-24 8 -7 15 -16 15 -21 0 -19 86 -136 129 -177 61 -57 80 -67 87 -47 3 8 10
13 14 10 23 -14 0 29 -23 44 -15 10 -25 20 -22 22 2 3 -20 31 -50 64 -30 33
-55 64 -55 71 0 6 -7 17 -15 24 -8 7 -15 20 -15 30 0 10 -7 23 -15 30 -8 6
-14 15 -13 18 1 8 -6 28 -29 83 -8 19 -16 47 -17 61 -2 14 -6 30 -10 36 -5 9
0 9 18 2 14 -5 26 -7 26 -5 0 3 10 -1 23 -10 13 -8 26 -13 29 -10 3 3 8 -12
12 -33 3 -21 14 -47 25 -56 19 -17 20 -17 31 4 7 12 10 30 7 39 -5 20 1 20 83
3 98 -21 101 -22 94 -9 -3 7 5 -1 20 -18 14 -16 25 -33 26 -37 0 -8 23 -38 52
-69 9 -9 14 -19 12 -22 -2 -2 14 -16 36 -31 25 -16 40 -34 40 -47 0 -11 4 -17
10 -14 5 3 7 0 4 -8 -2 -7 -1 -24 4 -38 15 -40 7 -44 -80 -41 -53 1 -78 -1
-68 -7 20 -12 190 -25 190 -14 0 4 -7 40 -16 78 -16 67 -23 78 -81 125 -29 23
-93 112 -99 137 -5 18 -15 23 -52 28 -26 3 -82 14 -125 23 l-77 18 6 -50 c4
-38 3 -47 -5 -36 -6 8 -11 31 -11 51 0 39 1 38 -142 86 -13 4 -18 0 -18 -14 0
-38 42 -170 78 -243 38 -76 137 -210 172 -232 11 -7 20 -19 20 -28 0 -8 -23 9
-53 38 -29 29 -57 49 -62 45 -4 -5 -5 -3 -2 3 4 6 -15 45 -42 85 -76 114 -113
220 -130 366 -9 88 2 243 20 271 8 14 9 13 5 -8 -3 -14 -9 -75 -12 -135 -7
-131 -11 -126 133 -173 31 -10 33 -9 28 11 -3 12 -2 40 4 62 9 39 9 39 10 -22
l1 -62 38 -10 c20 -5 71 -15 112 -21 41 -6 82 -13 90 -16 10 -2 24 15 43 54
31 66 33 76 13 69 -8 -3 -37 14 -66 39 -55 47 -100 74 -123 74 -7 0 -36 11
-64 25 -38 19 -55 35 -68 63 -9 20 -22 48 -29 62 -8 14 -19 55 -25 92 -10 56
-9 74 4 110 9 24 23 62 31 84 17 47 107 143 196 209 69 52 237 119 361 145 90
18 268 21 322 5z m-610 -65 c3 -5 1 -10 -4 -10 -6 0 -11 5 -11 10 0 6 2 10 4
10 3 0 8 -4 11 -10z m299 -39 c36 -20 37 -33 3 -45 -27 -10 -102 8 -114 27 -3
6 4 19 17 29 24 20 44 18 94 -11z m51 18 c4 -6 14 -8 22 -5 8 3 12 2 9 -2 -3
-5 4 -16 15 -25 11 -10 17 -22 14 -27 -3 -6 -1 -10 5 -10 6 0 9 -4 5 -9 -3 -5
-1 -12 5 -16 12 -7 14 -45 2 -45 -5 0 -22 11 -38 25 -16 14 -32 25 -35 25 -4
0 -10 7 -13 16 -3 8 -2 13 3 9 5 -3 11 1 14 7 5 17 -14 59 -24 52 -5 -3 -9 0
-9 5 0 14 17 14 25 0z m683 -112 c52 -39 114 -95 138 -126 49 -62 127 -213
143 -276 29 -119 36 -171 35 -285 -1 -139 -16 -208 -69 -325 -32 -70 -122
-201 -131 -192 -5 5 4 40 53 204 24 82 24 83 7 140 -10 32 -18 76 -18 98 -1
49 -13 53 -107 35 -51 -10 -70 -10 -88 0 -34 18 -101 81 -101 94 0 7 -6 18
-12 25 -7 6 -14 26 -15 44 -1 18 -5 47 -8 64 -6 28 -2 39 32 80 22 27 49 65
62 85 16 27 33 40 59 48 58 16 74 12 126 -25 38 -27 59 -35 93 -35 24 0 43 4
43 8 0 15 -48 54 -59 48 -5 -4 -15 3 -21 14 -6 11 -15 18 -21 15 -5 -4 -30 11
-55 31 -34 28 -50 35 -61 28 -8 -5 -15 -13 -14 -19 0 -15 -31 -46 -56 -56 -32
-12 -71 5 -85 38 -7 16 -17 31 -21 34 -14 10 35 39 65 39 32 0 35 11 11 36
-16 15 -15 18 10 36 18 13 27 29 27 48 0 24 -7 32 -45 50 -47 23 -109 85 -100
101 9 14 79 -26 183 -104z m-1118 78 c0 -2 -6 -8 -13 -14 -10 -8 -14 -7 -14 2
0 8 6 14 14 14 7 0 13 -1 13 -2z m927 -55 c10 0 32 -13 48 -30 16 -16 35 -30
42 -30 17 0 17 -34 0 -49 -16 -13 -28 -5 -20 15 4 11 -4 13 -41 8 l-46 -7 6
32 c9 42 -9 61 -57 61 -22 0 -39 4 -39 9 0 15 64 18 76 4 6 -7 20 -13 31 -13z
m-697 6 c0 -3 -4 -16 -9 -30 -9 -22 -13 -23 -35 -13 -13 6 -22 15 -19 20 8 14
63 33 63 23z m-330 -36 c0 -5 -10 -15 -22 -21 l-23 -12 20 21 c23 24 25 25 25
12z m1304 -7 c5 -12 4 -13 -7 -5 -8 7 -16 9 -19 6 -3 -3 -8 -1 -11 3 -3 5 3 9
13 10 10 1 21 -5 24 -14z m67 -80 c13 -16 12 -17 -3 -4 -17 13 -22 21 -14 21
2 0 10 -8 17 -17z m53 -59 c3 -8 2 -12 -4 -9 -6 3 -10 10 -10 16 0 14 7 11 14
-7z m-149 -83 c3 -5 2 -12 -3 -15 -5 -3 -9 1 -9 9 0 17 3 19 12 6z m219 -67
c3 -8 2 -12 -4 -9 -6 3 -10 10 -10 16 0 14 7 11 14 -7z m-6 -746 c-7 -13 -13
-25 -13 -28 -3 -17 -47 -90 -55 -90 -9 0 19 60 54 113 22 33 32 36 14 5z"/>
<path d="M2985 3640 c-3 -5 3 -10 14 -10 12 0 21 5 21 10 0 6 -6 10 -14 10 -8
0 -18 -4 -21 -10z"/>
<path d="M2875 3633 c-76 -16 -72 -13 -50 -29 19 -15 19 -16 -25 -55 -98 -87
-164 -155 -162 -165 3 -15 -25 -26 -33 -14 -10 16 -118 12 -142 -5 -13 -9 -27
-34 -33 -56 -9 -33 -8 -45 5 -65 19 -29 29 -30 58 -4 13 12 32 20 47 18 23 -3
25 -6 22 -49 -2 -32 1 -49 12 -58 9 -8 16 -22 16 -32 0 -10 10 -23 21 -30 17
-9 30 -6 68 14 65 35 92 39 147 22 27 -8 59 -15 72 -15 12 0 45 -11 72 -25
l50 -25 0 68 c0 65 -1 69 -27 80 l-28 12 28 -4 c26 -3 27 -2 27 49 l0 52 -67
-4 c-38 -2 -144 0 -238 5 l-170 9 238 1 237 2 0 146 0 145 -22 -7 c-13 -3 -29
-11 -35 -16 -10 -8 -13 -4 -13 16 0 22 -4 26 -27 25 -16 -1 -37 -3 -48 -6z
m51 -21 c-9 -15 23 -45 43 -39 26 6 28 -5 27 -121 l-1 -94 -168 -2 c-144 -1
-167 1 -164 14 2 8 8 14 15 13 6 -2 9 4 6 12 -4 10 0 15 12 15 9 0 15 3 11 6
-3 3 8 18 25 32 88 77 140 133 135 147 -4 9 -1 12 8 9 8 -3 22 -1 32 5 22 13
26 13 19 3z m-394 -287 c16 -14 37 -26 46 -26 33 -2 198 -9 302 -11 58 -2 108
-7 112 -13 12 -16 9 -35 -6 -35 -20 0 -26 -25 -12 -46 15 -22 26 -83 16 -89
-4 -3 -18 4 -30 15 -13 11 -39 21 -59 22 -48 2 -63 4 -81 11 -50 18 -72 16
-130 -12 l-60 -30 -24 41 c-19 31 -22 47 -16 69 7 24 5 32 -17 49 -31 24 -56
25 -88 4 -26 -17 -27 -16 -27 16 0 36 2 40 20 40 14 0 15 2 2 10 -13 8 -12 10
4 10 10 0 31 -11 48 -25z m8 15 c0 -5 -2 -10 -4 -10 -3 0 -8 5 -11 10 -3 6 -1
10 4 10 6 0 11 -4 11 -10z"/>
<path d="M3037 3305 c-2 -5 -3 -28 -3 -50 l1 -40 169 -3 169 -4 -6 24 c-4 12
-7 38 -7 56 l0 34 -160 -4 c-94 -2 -161 -7 -163 -13z m278 -13 c26 -9 32 -48
8 -54 -10 -2 -61 -3 -113 -2 -158 3 -150 2 -150 24 0 16 7 20 38 21 20 1 43 1
50 0 6 -1 20 3 30 8 19 11 105 13 137 3z"/>
<path d="M2355 3270 c-3 -6 1 -7 9 -4 18 7 21 14 7 14 -6 0 -13 -4 -16 -10z"/>
<path d="M2506 3197 c3 -10 9 -15 12 -12 3 3 0 11 -7 18 -10 9 -11 8 -5 -6z"/>
<path d="M3032 3125 c0 -41 5 -75 10 -75 4 0 26 -17 48 -39 22 -21 52 -43 67
-48 103 -36 135 -43 172 -37 l41 7 0 131 0 131 -170 3 -170 2 2 -75z m254 39
c62 5 61 9 56 -126 -3 -84 -4 -88 -26 -88 -13 0 -40 7 -60 15 -20 9 -42 15
-49 13 -25 -4 -63 16 -90 48 -16 19 -35 34 -43 34 -8 0 -12 5 -9 10 3 6 2 10
-4 10 -5 0 -8 8 -6 18 2 9 4 29 4 44 1 23 6 27 34 30 17 2 56 -1 86 -5 30 -4
78 -6 107 -3z"/>
<path d="M3548 2934 c-4 -3 -33 -7 -65 -8 -32 -2 -67 -4 -79 -5 -19 -1 -21 -8
-23 -68 -1 -38 -6 -84 -11 -103 -6 -24 -7 -4 -4 66 l6 101 -31 -5 c-21 -3 -28
-8 -24 -19 3 -8 -9 -34 -26 -58 -19 -27 -31 -56 -32 -77 -1 -67 -20 -100 -78
-133 -40 -22 -57 -38 -62 -59 -5 -17 -7 -31 -6 -32 1 -1 48 -4 104 -6 77 -2
99 0 90 8 -7 7 -43 15 -81 18 -38 4 -73 9 -78 12 -9 6 12 21 57 43 30 13 65
55 70 82 3 13 8 40 11 59 7 39 21 68 41 88 13 13 18 8 13 -13 -1 -5 -2 -30 -1
-55 2 -53 17 -76 37 -59 8 6 11 15 8 20 -3 5 -1 17 5 27 5 10 11 44 14 77 3
50 7 60 23 62 89 10 111 15 123 28 9 8 13 15 10 15 -3 0 -8 -3 -11 -6z"/>
<path d="M2623 2885 c0 -8 4 -12 9 -9 5 3 6 10 3 15 -9 13 -12 11 -12 -6z"/>
<path d="M2572 2540 c2 -7 18 -18 36 -26 18 -7 30 -9 27 -4 -3 6 -1 10 4 10 6
0 11 -4 11 -8 0 -5 21 -9 47 -11 26 -1 48 -3 49 -4 1 -1 4 -27 7 -57 7 -73 41
-161 72 -183 29 -21 70 -19 70 3 1 8 7 36 15 62 11 38 20 50 45 58 16 6 40 22
52 36 13 16 27 23 34 18 8 -4 9 -3 5 4 -4 7 -2 12 5 12 7 0 27 11 46 26 28 21
42 25 96 23 87 -3 107 -1 107 11 0 6 -40 10 -99 10 -97 0 -100 -1 -129 -30
-17 -16 -40 -30 -51 -30 -11 0 -22 -8 -25 -18 -3 -10 -25 -24 -48 -32 -33 -12
-44 -21 -46 -40 -2 -14 -9 -31 -15 -38 -6 -8 -10 -27 -9 -43 1 -16 -3 -29 -8
-29 -49 0 -90 92 -90 199 l0 69 -86 1 c-48 1 -95 6 -106 12 -15 8 -19 8 -16
-1z"/>
<path d="M3569 3083 c-13 -16 -12 -17 4 -4 16 13 21 21 13 21 -2 0 -10 -8 -17
-17z"/>
<path d="M3776 2735 c-9 -26 -7 -32 5 -12 6 10 9 21 6 23 -2 3 -7 -2 -11 -11z"/>
<path d="M2173 3655 c0 -8 4 -12 9 -9 5 3 6 10 3 15 -9 13 -12 11 -12 -6z"/>
<path d="M1904 3259 c-3 -6 -2 -15 3 -20 5 -5 9 -1 9 11 0 23 -2 24 -12 9z"/>
<path d="M1029 2198 c-248 -319 -350 -460 -333 -454 11 3 118 24 239 46 281
52 325 61 325 64 0 2 -25 20 -55 40 -30 20 -55 37 -55 39 0 1 757 1 1682 -1
l1683 -2 112 42 c62 24 113 45 113 48 0 3 -817 4 -1815 2 l-1815 -2 5 112 c3
62 8 130 11 151 2 20 3 37 1 37 -2 0 -46 -55 -98 -122z m66 20 c-3 -13 -9 -24
-15 -26 -5 -2 -10 -8 -10 -13 0 -6 4 -8 8 -5 5 3 8 -31 7 -74 -1 -44 2 -80 7
-80 4 0 8 -6 8 -14 0 -8 14 -16 33 -19 17 -3 794 -6 1726 -6 932 0 1696 -3
1699 -5 2 -3 -4 -5 -14 -5 -11 0 -769 0 -1686 -1 -918 -1 -1672 2 -1678 5 -6
3 -7 -1 -4 -10 4 -10 2 -14 -8 -10 -19 7 -42 -20 -34 -40 3 -9 14 -19 23 -23
18 -7 29 -31 15 -33 -4 0 -24 -2 -45 -4 -32 -3 -74 -10 -122 -20 -10 -3 -71
-14 -110 -20 -11 -2 -34 -8 -52 -13 -17 -6 -34 -8 -36 -5 -3 2 -14 0 -25 -6
-16 -9 -20 -8 -18 5 1 9 9 20 17 25 8 5 10 9 6 9 -9 0 -4 6 49 68 20 23 34 42
30 42 -5 0 22 35 52 66 7 8 10 14 5 14 -4 0 -3 4 2 8 6 4 30 32 55 62 24 30
48 57 52 58 5 2 8 10 8 17 0 7 7 16 16 19 8 3 12 11 9 16 -4 6 -1 9 6 8 7 -2
14 3 15 10 2 19 4 22 8 22 3 0 3 -10 1 -22z"/>
<path d="M1261 2177 c-8 -10 -7 -14 2 -14 8 0 14 6 14 14 0 7 -1 13 -2 13 -2
0 -8 -6 -14 -13z"/>
<path d="M5136 2068 c3 -5 10 -6 15 -3 13 9 11 12 -6 12 -8 0 -12 -4 -9 -9z"/>
<path d="M5342 1701 c-11 -7 -11 -9 0 -14 9 -3 15 1 15 9 0 8 -1 14 -1 14 -1
0 -7 -4 -14 -9z"/>
<path d="M720 1309 l-65 -69 193 0 c211 0 247 -7 278 -55 37 -57 14 -133 -55
-173 -41 -24 -56 -27 -174 -30 -122 -4 -129 -3 -124 14 3 11 11 46 17 79 6 33
13 70 16 83 4 21 2 22 -79 22 l-83 0 -13 -77 c-7 -43 -20 -117 -30 -165 l-17
-88 211 0 c228 0 278 8 362 57 47 27 104 86 128 134 23 43 30 128 15 173 -7
21 -26 53 -43 72 -62 72 -146 94 -340 93 l-132 0 -65 -70z m423 23 c7 -6 24
-13 38 -16 13 -2 23 -9 21 -15 -1 -6 5 -11 13 -11 8 0 15 -6 15 -14 0 -8 4
-18 10 -21 6 -4 7 1 3 12 -7 19 -5 18 17 -11 10 -13 10 -17 3 -12 -20 11 -15
-8 6 -26 15 -12 17 -26 14 -69 -5 -55 -18 -104 -36 -127 -8 -10 -13 -10 -25 0
-11 9 -14 9 -9 1 4 -6 3 -14 -3 -18 -5 -3 -10 -12 -10 -18 0 -7 5 -4 11 6 6 9
15 15 20 11 10 -6 -40 -51 -53 -46 -5 1 -7 -4 -6 -10 2 -7 -5 -12 -14 -12 -10
1 -18 -3 -18 -9 0 -6 -3 -8 -6 -5 -3 4 -15 -3 -27 -15 -13 -13 -22 -16 -25 -9
-2 8 -10 7 -26 -4 -32 -20 -423 -26 -431 -6 -7 19 36 236 49 244 7 5 7 8 -2 8
-7 0 -11 3 -9 8 3 4 29 6 59 4 l55 -4 -12 -61 c-7 -34 -15 -72 -19 -84 -6 -19
-3 -25 19 -33 33 -13 209 -13 253 -1 23 7 30 7 25 -2 -3 -6 11 -1 33 12 21 12
30 16 20 7 -11 -9 -15 -16 -9 -16 6 0 16 7 23 15 7 8 9 15 4 15 -4 0 5 13 20
29 20 21 29 42 33 82 5 49 2 57 -26 93 -17 21 -31 35 -31 31 0 -5 -14 4 -31
21 -19 18 -28 23 -24 11 6 -14 4 -16 -16 -9 -12 5 -89 7 -170 4 -146 -5 -148
-4 -142 16 3 12 10 20 16 19 6 -1 11 5 12 13 0 8 7 15 15 15 8 1 14 5 13 11
-2 15 342 11 360 -4z"/>
<path d="M838 1273 c23 -2 59 -2 80 0 20 2 1 4 -43 4 -44 0 -61 -2 -37 -4z"/>
<path d="M1125 950 c-3 -6 1 -7 9 -4 18 7 21 14 7 14 -6 0 -13 -4 -16 -10z"/>
<path d="M631 904 c0 -11 3 -14 6 -6 3 7 2 16 -1 19 -3 4 -6 -2 -5 -13z"/>
<path d="M1701 1133 c-23 -137 -45 -256 -48 -265 -4 -16 4 -18 79 -18 l84 0
13 78 c20 124 2 112 169 112 l148 0 64 65 64 65 -203 0 c-181 0 -202 2 -197
16 3 9 6 24 6 35 0 18 9 19 163 19 l163 0 69 70 69 70 -299 0 -300 0 -44 -247z
m527 166 c-43 -40 -54 -47 -42 -27 4 6 3 8 -4 4 -6 -3 -76 -7 -156 -9 -160 -2
-169 -5 -180 -65 -4 -24 -2 -34 9 -38 8 -4 12 -10 10 -15 -10 -16 42 -21 184
-17 78 2 141 2 141 1 0 -2 -8 -11 -19 -22 -10 -10 -20 -24 -23 -31 -2 -8 -43
-11 -149 -11 -104 1 -149 -2 -162 -11 -12 -9 -21 -37 -29 -88 -6 -41 -14 -80
-19 -85 -4 -6 -29 -9 -54 -7 l-47 4 8 47 c4 25 9 57 10 71 5 39 9 54 17 67 4
7 5 24 1 39 -5 19 -4 25 4 20 8 -5 11 1 11 16 -3 34 20 181 29 190 7 7 478 17
495 10 4 -2 -12 -21 -35 -43z"/>
<path d="M2555 1366 c-168 -42 -255 -143 -255 -297 0 -147 89 -214 303 -226
303 -17 478 95 476 307 0 91 -18 133 -74 172 -22 16 -65 35 -95 43 -68 18
-284 19 -355 1z m335 -28 c0 -3 18 -9 40 -13 22 -4 40 -12 40 -18 0 -5 3 -8 6
-5 7 8 48 -31 63 -61 15 -26 18 -144 6 -181 -4 -13 -14 -30 -21 -38 -8 -7 -11
-18 -8 -24 4 -7 2 -8 -4 -4 -7 4 -12 2 -12 -3 0 -15 -32 -51 -45 -51 -6 0 -26
-9 -46 -19 -20 -11 -54 -23 -75 -27 -22 -3 -43 -9 -49 -12 -30 -18 -245 -16
-286 2 -9 4 -27 8 -40 10 -31 3 -90 37 -83 48 3 4 0 8 -6 8 -6 0 -18 17 -27
37 -19 47 -14 164 10 210 19 36 76 93 93 93 7 0 15 7 18 16 3 8 10 13 15 10 5
-4 22 -1 38 5 15 7 53 14 83 16 30 3 57 7 60 10 7 7 230 -1 230 -9z"/>
<path d="M2605 1274 c-5 -2 -29 -8 -52 -14 -44 -11 -107 -56 -98 -70 3 -5 0
-10 -7 -12 -16 -6 -15 -117 3 -156 8 -18 20 -32 27 -32 7 0 11 -4 8 -9 -3 -4
20 -16 51 -26 74 -23 268 -17 309 10 18 11 24 13 19 4 -5 -8 5 0 22 16 44 44
54 70 58 142 3 53 0 68 -16 84 -10 10 -19 24 -19 30 0 5 -4 7 -10 4 -5 -3 -10
-1 -10 4 0 6 -3 10 -7 10 -5 -1 -10 0 -13 1 -22 8 -59 12 -150 14 -58 2 -109
1 -115 0z m257 -42 c44 -18 61 -54 56 -118 -9 -109 -51 -132 -241 -133 -132
-1 -174 9 -204 48 -26 34 -9 143 27 176 11 10 41 24 67 30 56 15 255 12 295
-3z"/>
<path d="M3245 1298 c-44 -46 -73 -77 -65 -70 10 9 79 12 260 12 206 0 249 -3
268 -16 28 -19 28 -55 1 -80 -19 -17 -42 -19 -280 -22 -258 -3 -259 -3 -264
-25 -2 -12 -12 -62 -21 -112 -8 -49 -18 -100 -21 -112 -5 -22 -3 -23 80 -23
l86 0 7 70 7 70 131 0 131 0 43 -69 42 -70 110 -3 c61 -2 110 -2 110 0 0 10
-124 162 -132 162 -19 0 3 18 29 25 73 18 133 99 133 181 0 85 -51 132 -164
153 -33 6 -139 11 -236 11 l-175 0 -80 -82z m491 39 c54 -9 84 -19 84 -28 0
-5 5 -8 12 -7 17 4 42 -51 40 -87 -3 -50 -7 -64 -33 -91 -13 -15 -18 -24 -10
-19 9 5 12 4 7 -3 -4 -7 -14 -12 -22 -12 -8 0 -17 -6 -20 -13 -2 -7 -14 -13
-25 -14 -25 -2 -59 -31 -59 -49 0 -7 9 -19 20 -27 11 -8 17 -16 14 -20 -3 -3
4 -10 15 -17 12 -6 21 -15 21 -21 0 -6 7 -17 15 -26 9 -8 15 -17 13 -18 -2 -2
-34 -5 -73 -6 l-69 -2 -21 36 c-11 20 -30 48 -42 64 -13 15 -23 31 -23 36 0 5
-7 7 -15 3 -8 -3 -15 -1 -15 5 0 6 -5 7 -11 3 -6 -3 -58 -6 -114 -5 -129 3
-141 -4 -156 -81 l-12 -58 -48 0 -48 0 5 62 c3 34 8 66 11 71 3 4 7 23 10 40
3 18 6 33 7 34 1 1 113 3 250 3 l247 1 32 28 c40 36 44 84 10 121 l-23 25
-224 0 c-242 0 -241 0 -175 52 l35 28 181 -2 c99 -1 193 -4 209 -6z"/>
<path d="M4213 1365 c-126 -27 -225 -107 -259 -207 -40 -122 19 -241 143 -288
46 -17 78 -20 222 -20 l168 0 62 67 c33 36 61 67 61 67 0 1 -93 1 -208 1 -191
0 -210 2 -242 21 -51 29 -67 81 -41 138 15 34 29 48 72 69 50 26 60 27 209 27
l156 0 23 28 c13 15 42 46 64 70 l41 42 -204 -1 c-132 0 -227 -5 -267 -14z
m210 -25 c98 -1 177 -3 177 -5 0 -1 -14 -17 -30 -35 l-30 -33 -150 1 c-91 1
-152 -3 -155 -9 -4 -5 -14 -8 -23 -5 -17 5 -118 -61 -108 -71 3 -3 -1 -12 -9
-19 -20 -21 -15 -116 8 -139 10 -10 15 -25 12 -33 -3 -9 -3 -13 1 -9 4 4 12 3
18 -1 33 -25 99 -33 229 -30 131 3 137 2 137 -17 0 -16 2 -17 9 -5 6 8 7 19 4
25 -3 5 0 4 8 -3 11 -10 8 -17 -16 -42 l-30 -29 -145 -2 c-142 -1 -217 9 -249
34 -12 10 -13 9 -7 -3 4 -8 0 -6 -8 4 -9 11 -16 16 -16 12 0 -17 -61 61 -71
93 -18 54 -4 138 34 193 18 26 43 53 57 60 14 7 31 20 38 28 10 11 12 12 6 1
-5 -11 -1 -10 17 2 13 9 32 17 42 17 10 0 16 4 13 9 -3 4 8 7 25 5 21 -3 28 0
23 8 -4 6 -3 8 3 5 5 -4 89 -7 186 -7z"/>
<path d="M4722 1248 c-30 -172 -62 -347 -68 -375 l-4 -23 258 0 c255 0 258 0
276 23 10 12 38 42 62 67 l43 45 -224 -3 c-247 -3 -235 -6 -219 56 6 22 9 22
173 23 l166 1 55 60 54 59 -212 -3 c-209 -3 -213 -3 -208 17 3 11 6 26 6 33 0
9 41 12 173 12 l173 0 69 70 69 70 -309 0 -310 0 -23 -132z m556 88 c3 -3 -10
-20 -29 -36 l-34 -31 -168 -2 c-179 -2 -179 -2 -194 -56 -13 -51 0 -56 178
-59 90 -1 170 -4 176 -7 8 -3 3 -14 -15 -32 l-27 -28 -153 2 c-135 2 -155 0
-171 -16 -26 -26 -33 -74 -14 -100 15 -22 20 -23 192 -21 97 1 180 2 185 1 5
-1 1 -10 -10 -22 -10 -12 -18 -23 -16 -25 1 -2 -1 -4 -5 -5 -5 0 -13 -5 -20
-11 -12 -9 -452 -12 -462 -3 -4 5 48 315 70 415 l10 45 250 -2 c138 -1 254 -4
257 -7z"/>
<path d="M1660 689 c-746 -7 -1068 -14 -1076 -22 -10 -10 1298 -22 2356 -22
1007 0 2346 12 2337 21 -9 9 -310 15 -1217 24 -1052 11 -1306 11 -2400 -1z"/>
<path d="M1144 539 c-3 -6 -2 -15 3 -20 5 -5 9 -1 9 11 0 23 -2 24 -12 9z"/>
<path d="M590 498 c0 -3 -3 -13 -6 -22 -5 -14 5 -16 75 -16 65 0 81 -3 81 -15
0 -12 -15 -15 -79 -15 -78 0 -79 0 -85 -27 -4 -16 -9 -36 -12 -45 -4 -14 1
-18 25 -18 25 0 31 4 31 23 0 20 5 22 64 22 49 1 70 6 85 19 23 21 28 68 8 84
-13 11 -187 21 -187 10z"/>
<path d="M884 500 c-60 -19 -90 -88 -57 -129 35 -43 155 -40 199 4 30 30 32
84 5 109 -22 20 -104 29 -147 16z m111 -51 c4 -5 4 -21 1 -33 -4 -17 -15 -25
-40 -29 -70 -11 -117 21 -86 58 15 18 115 21 125 4z"/>
<path d="M1077 445 c12 -122 32 -133 92 -49 34 47 42 53 47 38 37 -115 54
-118 106 -19 44 83 46 94 14 88 -17 -4 -30 -18 -44 -52 -13 -28 -22 -40 -26
-31 -2 8 -10 32 -16 53 -16 53 -41 49 -83 -13 l-34 -51 -7 48 c-5 43 -9 48
-31 48 -24 0 -24 -1 -18 -60z"/>
<path d="M1380 450 c-6 -30 -13 -67 -16 -82 l-6 -28 80 0 c64 0 82 4 95 18 10
10 17 21 17 24 0 3 -29 3 -65 0 -56 -4 -65 -2 -65 12 0 13 11 16 53 16 39 0
58 5 70 18 16 17 13 18 -48 14 -50 -3 -65 -1 -65 9 0 11 13 13 51 10 37 -2 55
1 70 15 10 9 19 20 19 23 0 3 -40 6 -90 6 l-90 0 -10 -55z"/>
<path d="M1594 501 c-2 -2 -4 -13 -4 -23 0 -16 9 -18 80 -18 64 0 80 -3 80
-15 0 -12 -16 -15 -85 -15 -65 0 -85 -3 -85 -14 0 -7 -3 -28 -6 -45 -6 -28 -4
-31 20 -31 21 0 26 5 26 25 0 22 4 25 39 25 30 0 42 -5 55 -25 13 -19 25 -25
54 -25 l37 0 -27 27 -27 27 22 11 c26 12 35 66 15 83 -12 10 -185 22 -194 13z"/>
<path d="M2040 498 c0 -3 -3 -13 -6 -22 -5 -14 5 -16 76 -16 51 0 79 -4 75
-10 -3 -5 -39 -10 -80 -10 l-73 0 -7 -32 c-4 -18 -9 -41 -11 -50 -5 -16 3 -18
75 -18 44 0 91 4 104 9 29 11 44 48 28 64 -8 8 -6 16 6 29 13 15 15 23 7 36
-9 13 -31 18 -103 22 -50 3 -91 2 -91 -2z m140 -97 c0 -13 -27 -21 -71 -21
-28 0 -39 4 -39 15 0 12 13 15 55 15 30 0 55 -4 55 -9z"/>
<path d="M2275 500 c-1 -3 -5 -27 -9 -55 -4 -27 -9 -62 -12 -77 l-6 -28 76 0
c57 0 81 4 96 17 11 10 20 20 20 24 0 4 -29 4 -65 1 -56 -4 -65 -2 -65 12 0
13 11 16 53 16 46 0 77 12 77 30 0 3 -27 3 -60 2 -45 -3 -60 0 -60 10 0 9 13
12 51 9 37 -2 55 1 70 15 10 9 19 20 19 23 0 7 -181 8 -185 1z m35 -74 c0 -3
-4 -8 -10 -11 -5 -3 -10 -1 -10 4 0 6 5 11 10 11 6 0 10 -2 10 -4z"/>
<path d="M2470 507 c0 -2 18 -28 40 -57 33 -44 39 -60 35 -82 -6 -25 -4 -28
19 -28 21 0 28 6 33 30 3 19 25 48 59 79 30 27 54 52 54 55 0 15 -69 -10 -96
-36 l-31 -29 -24 30 c-14 17 -38 31 -56 35 -18 3 -33 4 -33 3z"/>
<path d="M2755 497 c-58 -27 -81 -86 -48 -126 35 -43 154 -40 199 4 30 30 32
84 5 109 -25 23 -117 31 -156 13z m123 -62 c4 -33 -14 -48 -59 -51 -24 -1 -49
0 -55 3 -19 7 -25 32 -13 54 9 17 19 20 67 17 48 -3 57 -6 60 -23z"/>
<path d="M2983 502 c-6 -4 -16 -35 -23 -70 -6 -35 -14 -70 -17 -78 -4 -10 2
-14 20 -14 25 0 37 20 37 68 0 32 10 28 57 -25 35 -40 44 -46 59 -37 20 12 28
37 39 112 6 45 5 49 -14 47 -28 -2 -31 -6 -33 -54 l-1 -42 -51 50 c-55 55 -55
54 -73 43z m24 -37 c0 -8 -4 -12 -9 -9 -5 3 -6 10 -3 15 9 13 12 11 12 -6z
m98 -75 c3 -5 1 -10 -4 -10 -6 0 -11 5 -11 10 0 6 2 10 4 10 3 0 8 -4 11 -10z"/>
<path d="M3195 492 c-11 -28 -3 -32 59 -32 73 0 95 -14 76 -49 -6 -12 -18 -22
-28 -22 -9 -1 -30 -3 -46 -5 -27 -3 -28 -1 -23 30 5 30 3 34 -20 34 -27 0 -29
-3 -37 -65 l-6 -43 60 0 c96 0 160 38 160 95 0 46 -23 60 -109 65 -62 4 -82 2
-86 -8z"/>
<path d="M3624 501 c-2 -2 -4 -13 -4 -23 0 -17 7 -19 72 -17 48 2 73 -2 76 -9
3 -9 -20 -12 -77 -12 -58 0 -81 -4 -81 -12 0 -7 -3 -30 -6 -50 l-7 -38 79 0
c96 0 129 14 130 55 1 17 5 38 9 47 3 9 5 25 3 35 -3 15 -17 19 -96 23 -52 3
-96 3 -98 1z m136 -100 c0 -13 -26 -21 -65 -21 -33 0 -51 11 -38 24 10 9 103
7 103 -3z"/>
<path d="M3920 503 c-43 -7 -71 -36 -77 -79 -7 -53 18 -76 91 -82 63 -5 118
16 135 54 27 61 0 101 -74 108 -27 2 -61 2 -75 -1z m108 -69 c4 -28 -21 -46
-67 -50 -52 -3 -76 14 -67 50 6 26 9 27 69 24 54 -3 62 -6 65 -24z"/>
<path d="M4120 498 c0 -3 -3 -13 -6 -22 -5 -13 7 -16 78 -18 109 -4 104 -22
-7 -26 -80 -3 -85 -4 -85 -25 0 -12 -3 -32 -6 -44 -5 -20 -2 -23 20 -23 19 0
27 6 32 25 5 21 12 25 43 25 31 0 40 -5 49 -25 9 -20 19 -25 47 -25 39 0 44 9
16 34 -18 17 -18 18 5 41 26 26 31 57 11 73 -13 11 -197 21 -197 10z"/>
<path d="M4370 498 c0 -3 -3 -13 -6 -22 -5 -12 6 -16 62 -18 50 -2 70 -7 78
-20 15 -25 -11 -47 -63 -54 l-42 -5 7 36 c6 33 4 35 -19 35 -22 0 -27 -6 -36
-50 -6 -28 -11 -53 -11 -55 0 -11 124 -4 154 9 59 24 82 80 52 122 -12 15 -30
20 -95 24 -45 3 -81 2 -81 -2z"/>
<path d="M4589 427 c-8 -43 -13 -80 -10 -82 2 -3 37 -5 76 -5 62 0 74 3 94 24
l22 23 -72 -5 c-58 -4 -71 -2 -67 9 3 9 23 15 55 17 32 2 56 9 66 20 15 16 11
17 -50 14 -50 -3 -64 -1 -61 9 3 9 20 12 51 10 32 -2 54 3 71 16 14 10 26 20
26 23 0 3 -42 5 -93 5 l-94 0 -14 -78z"/>
<path d="M4810 498 c0 -3 -3 -13 -6 -22 -5 -13 7 -16 78 -18 108 -4 108 -22 0
-26 -54 -2 -84 -7 -87 -15 -2 -7 -6 -27 -9 -45 -5 -32 -4 -33 22 -30 19 2 28
9 30 26 3 18 10 22 41 22 30 0 40 -5 51 -25 10 -19 21 -25 47 -25 38 0 41 9
13 35 -19 17 -19 18 5 37 27 21 33 59 12 76 -13 11 -197 21 -197 10z"/>
<path d="M5162 500 c-97 -5 -112 -12 -112 -56 0 -28 17 -34 91 -34 32 0 59 -4
59 -10 0 -15 -42 -22 -93 -17 -39 5 -48 2 -69 -20 l-23 -25 103 4 c90 3 106 6
118 23 8 11 14 31 12 45 -3 24 -7 25 -75 28 -90 4 -97 22 -10 22 51 0 68 4 82
20 10 11 16 21 14 23 -2 1 -46 0 -97 -3z"/>
</g>
</svg>
